<svg width="32" height="32" viewBox="0 0 32 32" fill="none" xmlns="http://www.w3.org/2000/svg">
<rect width="32" height="32" rx="6" fill="#F8F8F8"/>
<path fill-rule="evenodd" clip-rule="evenodd" d="M16.0002 11.4084L16.1294 11.2756C17.5677 9.79681 19.9065 9.79681 21.3447 11.2756C22.7742 12.7453 22.7742 15.1217 21.3447 16.5914L16.8365 21.2266C16.3873 21.6885 15.6486 21.6988 15.1867 21.2495C15.1752 21.2382 15.1752 21.2382 15.1638 21.2266L10.6556 16.5914C9.22613 15.1217 9.22613 12.7453 10.6556 11.2756C12.0939 9.79681 14.4327 9.79681 15.871 11.2756L16.0002 11.4084ZM20.5084 15.778C21.4974 14.7611 21.4974 13.1059 20.5084 12.089C19.5282 11.0812 17.9459 11.0812 16.9657 12.089L16.4183 12.6518C16.1893 12.8873 15.811 12.8873 15.582 12.6518L15.0346 12.089C14.0544 11.0812 12.4721 11.0812 11.4919 12.089C10.5029 13.1059 10.5029 14.7611 11.4919 15.778L16.0002 20.4132L20.5084 15.778Z" fill="#6B6F78"/>
</svg>
