<svg width="100" height="70" viewBox="0 0 100 70" fill="none" xmlns="http://www.w3.org/2000/svg">
<path d="M18.839 36.8C18.975 37.056 19.099 37.324 19.211 37.604C19.331 37.876 19.447 38.152 19.559 38.432C19.671 38.144 19.787 37.86 19.907 37.58C20.027 37.3 20.155 37.032 20.291 36.776L25.427 27.164C25.491 27.044 25.555 26.948 25.619 26.876C25.691 26.804 25.767 26.752 25.847 26.72C25.935 26.688 26.031 26.668 26.135 26.66C26.239 26.652 26.363 26.648 26.507 26.648H28.943V44H26.099V32.792C26.099 32.584 26.103 32.356 26.111 32.108C26.127 31.86 26.147 31.608 26.171 31.352L20.927 41.192C20.807 41.416 20.651 41.592 20.459 41.72C20.267 41.84 20.043 41.9 19.787 41.9H19.343C19.087 41.9 18.863 41.84 18.671 41.72C18.479 41.592 18.323 41.416 18.203 41.192L12.887 31.316C12.919 31.58 12.939 31.84 12.947 32.096C12.963 32.344 12.971 32.576 12.971 32.792V44H10.127V26.648H12.563C12.707 26.648 12.831 26.652 12.935 26.66C13.039 26.668 13.131 26.688 13.211 26.72C13.299 26.752 13.379 26.804 13.451 26.876C13.523 26.948 13.591 27.044 13.655 27.164L18.839 36.8ZM43.3835 26.648V29.216H35.6915V34.028H41.7515V36.512H35.6915V41.42H43.3835V44H32.4395V26.648H43.3835ZM61.5819 35.324C61.5819 36.596 61.3699 37.764 60.9459 38.828C60.5219 39.892 59.9259 40.808 59.1579 41.576C58.3899 42.344 57.4659 42.94 56.3859 43.364C55.3059 43.788 54.1099 44 52.7979 44H46.1739V26.648H52.7979C54.1099 26.648 55.3059 26.864 56.3859 27.296C57.4659 27.72 58.3899 28.316 59.1579 29.084C59.9259 29.844 60.5219 30.756 60.9459 31.82C61.3699 32.884 61.5819 34.052 61.5819 35.324ZM58.2819 35.324C58.2819 34.372 58.1539 33.52 57.8979 32.768C57.6419 32.008 57.2779 31.368 56.8059 30.848C56.3339 30.32 55.7579 29.916 55.0779 29.636C54.4059 29.356 53.6459 29.216 52.7979 29.216H49.4259V41.432H52.7979C53.6459 41.432 54.4059 41.292 55.0779 41.012C55.7579 40.732 56.3339 40.332 56.8059 39.812C57.2779 39.284 57.6419 38.644 57.8979 37.892C58.1539 37.132 58.2819 36.276 58.2819 35.324ZM79.5116 35.324C79.5116 36.596 79.2996 37.764 78.8756 38.828C78.4516 39.892 77.8556 40.808 77.0876 41.576C76.3196 42.344 75.3956 42.94 74.3156 43.364C73.2356 43.788 72.0396 44 70.7276 44H64.1036V26.648H70.7276C72.0396 26.648 73.2356 26.864 74.3156 27.296C75.3956 27.72 76.3196 28.316 77.0876 29.084C77.8556 29.844 78.4516 30.756 78.8756 31.82C79.2996 32.884 79.5116 34.052 79.5116 35.324ZM76.2116 35.324C76.2116 34.372 76.0836 33.52 75.8276 32.768C75.5716 32.008 75.2076 31.368 74.7356 30.848C74.2636 30.32 73.6876 29.916 73.0076 29.636C72.3356 29.356 71.5756 29.216 70.7276 29.216H67.3556V41.432H70.7276C71.5756 41.432 72.3356 41.292 73.0076 41.012C73.6876 40.732 74.2636 40.332 74.7356 39.812C75.2076 39.284 75.5716 38.644 75.8276 37.892C76.0836 37.132 76.2116 36.276 76.2116 35.324Z" fill="#2C323F"/>
<path d="M81.7213 40.232C81.7213 39.656 81.8253 39.12 82.0333 38.624C82.2573 38.128 82.5533 37.696 82.9213 37.328C83.3053 36.96 83.7533 36.672 84.2653 36.464C84.7773 36.24 85.3373 36.128 85.9453 36.128C86.5373 36.128 87.0893 36.24 87.6013 36.464C88.1133 36.672 88.5613 36.96 88.9453 37.328C89.3293 37.696 89.6253 38.128 89.8333 38.624C90.0573 39.12 90.1693 39.656 90.1693 40.232C90.1693 40.808 90.0573 41.352 89.8333 41.864C89.6253 42.36 89.3293 42.792 88.9453 43.16C88.5613 43.528 88.1133 43.816 87.6013 44.024C87.0893 44.232 86.5373 44.336 85.9453 44.336C85.3373 44.336 84.7773 44.232 84.2653 44.024C83.7533 43.816 83.3053 43.528 82.9213 43.16C82.5533 42.792 82.2573 42.36 82.0333 41.864C81.8253 41.352 81.7213 40.808 81.7213 40.232Z" fill="#E73078"/>
</svg>
