<svg width="16" height="16" viewBox="0 0 16 16" fill="none" xmlns="http://www.w3.org/2000/svg">
<path fill-rule="evenodd" clip-rule="evenodd" d="M11.1463 5.62052C11.3042 5.14673 10.8534 4.69597 10.3797 4.85391L6.52271 6.13955C6.34174 6.19988 6.19973 6.34189 6.1394 6.52286L4.85375 10.3798C4.69582 10.8536 5.14657 11.3044 5.62037 11.1464L9.47731 9.86077C9.65829 9.80045 9.80029 9.65844 9.86062 9.47746L11.1463 5.62052ZM6.38698 9.61319L6.9734 7.85392L8.15998 9.0222L6.38698 9.61319ZM9.01958 8.16751L7.81877 6.98522L9.61304 6.38713L9.01958 8.16751Z" fill="#95989F"/>
<path fill-rule="evenodd" clip-rule="evenodd" d="M8.00001 14.6668C11.6819 14.6668 14.6667 11.6821 14.6667 8.00016C14.6667 4.31826 11.6819 1.3335 8.00001 1.3335C4.31811 1.3335 1.33334 4.31826 1.33334 8.00016C1.33334 11.6821 4.31811 14.6668 8.00001 14.6668ZM8.00001 13.4547C4.98755 13.4547 2.54546 11.0126 2.54546 8.00016C2.54546 4.9877 4.98755 2.54562 8.00001 2.54562C11.0125 2.54562 13.4546 4.9877 13.4546 8.00016C13.4546 11.0126 11.0125 13.4547 8.00001 13.4547Z" fill="#95989F"/>
</svg>
