<svg width="32" height="32" viewBox="0 0 32 32" fill="none" xmlns="http://www.w3.org/2000/svg">
<rect width="32" height="32" rx="6" fill="#F8F8F8"/>
<path d="M20.6083 12.3047H19.1121V11.0797C19.1121 10.6829 18.9544 10.3023 18.6738 10.0217C18.3932 9.74114 18.0126 9.5835 17.6158 9.5835H11.0796C10.6827 9.5835 10.3022 9.74114 10.0216 10.0217C9.74095 10.3023 9.58331 10.6829 9.58331 11.0797V17.616C9.58447 18.0125 9.74248 18.3924 10.0228 18.6727C10.3032 18.9531 10.6831 19.1111 11.0796 19.1122H12.3046V20.6085C12.3057 20.9315 12.4339 21.2411 12.6615 21.4704C12.8891 21.6996 13.1978 21.8301 13.5208 21.8335H20.6083C20.9328 21.8323 21.2438 21.7029 21.4732 21.4734C21.7027 21.2439 21.8322 20.933 21.8333 20.6085V13.521C21.8299 13.198 21.6994 12.8893 21.4702 12.6617C21.241 12.4341 20.9313 12.3059 20.6083 12.3047ZM11.0796 18.2941C10.8997 18.2941 10.7272 18.2227 10.6001 18.0955C10.4729 17.9683 10.4014 17.7958 10.4014 17.616V11.0797C10.4009 10.9905 10.418 10.9021 10.4519 10.8196C10.4857 10.737 10.5357 10.662 10.5988 10.5989C10.6618 10.5359 10.7368 10.4859 10.8194 10.4521C10.9019 10.4182 10.9903 10.401 11.0796 10.4016H17.6158C17.7957 10.4016 17.9681 10.4731 18.0953 10.6002C18.2225 10.7274 18.2939 10.8999 18.2939 11.0797V12.3047H13.5208C13.1993 12.3082 12.8919 12.4374 12.6646 12.6648C12.4372 12.8921 12.308 13.1995 12.3046 13.521V18.2941H11.0796ZM21.0152 20.6085C21.0152 20.7164 20.9723 20.8199 20.896 20.8962C20.8197 20.9725 20.7162 21.0154 20.6083 21.0154H13.5208C13.4129 21.0154 13.3094 20.9725 13.2331 20.8962C13.1568 20.8199 13.1139 20.7164 13.1139 20.6085V13.521C13.1139 13.4131 13.1568 13.3096 13.2331 13.2333C13.3094 13.157 13.4129 13.1141 13.5208 13.1141H20.6083C20.7162 13.1141 20.8197 13.157 20.896 13.2333C20.9723 13.3096 21.0152 13.4131 21.0152 13.521V20.6085Z" fill="#6B6F78" stroke="#6B6F78" stroke-width="0.2"/>
<path fill-rule="evenodd" clip-rule="evenodd" d="M16.683 16.6831L16.683 15.4261C16.683 15.1947 16.8706 15.0071 17.102 15.0071C17.3334 15.0071 17.521 15.1947 17.521 15.4261L17.521 16.6831L18.778 16.6831C19.0095 16.6831 19.1971 16.8707 19.1971 17.1021C19.1971 17.3335 19.0095 17.5211 18.778 17.5211L17.521 17.5211L17.521 18.7782C17.521 19.0096 17.3334 19.1972 17.102 19.1972C16.8706 19.1972 16.683 19.0096 16.683 18.7782L16.683 17.5211L15.4259 17.5211C15.1945 17.5211 15.0069 17.3335 15.0069 17.1021C15.0069 16.8707 15.1945 16.6831 15.4259 16.6831L16.683 16.6831Z" fill="#6B6F78" stroke="#6B6F78" stroke-width="0.2"/>
</svg>
