<svg width="32" height="32" viewBox="0 0 32 32" fill="none" xmlns="http://www.w3.org/2000/svg">
<rect width="32" height="32" rx="6" fill="#F8F8F8"/>
<path fill-rule="evenodd" clip-rule="evenodd" d="M17.7498 11.9168C17.7498 10.6282 18.7945 9.5835 20.0832 9.5835C21.3718 9.5835 22.4165 10.6282 22.4165 11.9168C22.4165 13.2055 21.3718 14.2502 20.0832 14.2502C19.2867 14.2502 18.5834 13.8511 18.1624 13.242L14.1145 15.2152C14.2021 15.4605 14.2498 15.7248 14.2498 16.0002C14.2498 16.2565 14.2085 16.5032 14.1321 16.734L18.1568 18.7665C18.5772 18.1528 19.2832 17.7502 20.0832 17.7502C21.3718 17.7502 22.4165 18.7948 22.4165 20.0835C22.4165 21.3722 21.3718 22.4168 20.0832 22.4168C18.7945 22.4168 17.7498 21.3722 17.7498 20.0835C17.7498 20.0124 17.753 19.9421 17.7592 19.8727L13.4945 17.719C13.0791 18.1006 12.525 18.3335 11.9165 18.3335C10.6278 18.3335 9.58317 17.2888 9.58317 16.0002C9.58317 14.7115 10.6278 13.6668 11.9165 13.6668C12.5034 13.6668 13.0398 13.8835 13.4498 14.2413L17.7604 12.14C17.7534 12.0666 17.7498 11.9921 17.7498 11.9168ZM21.2498 11.9168C21.2498 11.2725 20.7275 10.7502 20.0832 10.7502C19.4388 10.7502 18.9165 11.2725 18.9165 11.9168C18.9165 12.5612 19.4388 13.0835 20.0832 13.0835C20.7275 13.0835 21.2498 12.5612 21.2498 11.9168ZM21.2498 20.0835C21.2498 19.4392 20.7275 18.9168 20.0832 18.9168C19.4388 18.9168 18.9165 19.4392 18.9165 20.0835C18.9165 20.7278 19.4388 21.2502 20.0832 21.2502C20.7275 21.2502 21.2498 20.7278 21.2498 20.0835ZM11.9165 14.8335C12.5608 14.8335 13.0832 15.3558 13.0832 16.0002C13.0832 16.6445 12.5608 17.1668 11.9165 17.1668C11.2722 17.1668 10.7498 16.6445 10.7498 16.0002C10.7498 15.3558 11.2722 14.8335 11.9165 14.8335Z" fill="#6B6F78"/>
</svg>
