<svg width="16" height="16" viewBox="0 0 16 16" fill="none" xmlns="http://www.w3.org/2000/svg">
<path fill-rule="evenodd" clip-rule="evenodd" d="M11.3333 4H13.3333C14.4379 4 15.3333 4.89543 15.3333 6V12.6667C15.3333 13.7712 14.4379 14.6667 13.3333 14.6667H2.66666C1.56209 14.6667 0.666656 13.7712 0.666656 12.6667V6C0.666656 4.89543 1.56209 4 2.66666 4H4.66666C4.66666 2.89543 5.56209 2 6.66666 2H9.33332C10.4379 2 11.3333 2.89543 11.3333 4ZM4.33332 5.33333V13.3333H11.6667V5.33333H4.33332ZM13 5.33333V13.3333H13.3333C13.7015 13.3333 14 13.0349 14 12.6667V6C14 5.63181 13.7015 5.33333 13.3333 5.33333H13ZM2.66666 5.33333H2.99999V13.3333H2.66666C2.29847 13.3333 1.99999 13.0349 1.99999 12.6667V6C1.99999 5.63181 2.29847 5.33333 2.66666 5.33333ZM9.99999 4C9.99999 3.63181 9.70151 3.33333 9.33332 3.33333H6.66666C6.29847 3.33333 5.99999 3.63181 5.99999 4H9.99999Z" fill="#95989F"/>
<path fill-rule="evenodd" clip-rule="evenodd" d="M7.44715 8.78035L7.44715 7.34373C7.44715 7.07926 7.66155 6.86486 7.92603 6.86486C8.1905 6.86486 8.4049 7.07926 8.4049 7.34373L8.4049 8.78035L9.84152 8.78035C10.106 8.78035 10.3204 8.99475 10.3204 9.25923C10.3204 9.5237 10.106 9.7381 9.84152 9.7381L8.4049 9.7381L8.4049 11.1747C8.4049 11.4392 8.1905 11.6536 7.92603 11.6536C7.66155 11.6536 7.44715 11.4392 7.44715 11.1747L7.44715 9.7381L6.01053 9.7381C5.74605 9.7381 5.53166 9.5237 5.53166 9.25923C5.53166 8.99475 5.74606 8.78035 6.01053 8.78035L7.44715 8.78035Z" fill="#95989F" stroke="#95989F" stroke-width="0.5"/>
</svg>
